<mxfile host="app.diagrams.net" modified="2023-04-23T14:08:43.538Z" agent="Mozilla/5.0 (Windows NT 10.0; Win64; x64) AppleWebKit/537.36 (KHTML, like Gecko) Chrome/112.0.0.0 Safari/537.36" etag="c0mBgVZQDegldI1lLnAL" version="21.2.1" type="gitlab">
  <diagram id="C5RBs43oDa-KdzZeNtuy" name="Page-1">
    <mxGraphModel dx="1434" dy="1933" grid="1" gridSize="10" guides="1" tooltips="1" connect="1" arrows="1" fold="1" page="1" pageScale="1" pageWidth="827" pageHeight="1169" math="0" shadow="0">
      <root>
        <mxCell id="WIyWlLk6GJQsqaUBKTNV-0" />
        <mxCell id="WIyWlLk6GJQsqaUBKTNV-1" parent="WIyWlLk6GJQsqaUBKTNV-0" />
        <mxCell id="nHf2IIVKBqBw7tvdfu93-0" value="the user picks his move" style="rounded=0;whiteSpace=wrap;html=1;" vertex="1" parent="WIyWlLk6GJQsqaUBKTNV-1">
          <mxGeometry x="70" y="30" width="120" height="60" as="geometry" />
        </mxCell>
        <mxCell id="nHf2IIVKBqBw7tvdfu93-2" value="" style="endArrow=classic;html=1;rounded=0;" edge="1" parent="WIyWlLk6GJQsqaUBKTNV-1">
          <mxGeometry width="50" height="50" relative="1" as="geometry">
            <mxPoint x="190" y="60" as="sourcePoint" />
            <mxPoint x="250" y="60" as="targetPoint" />
          </mxGeometry>
        </mxCell>
        <mxCell id="nHf2IIVKBqBw7tvdfu93-3" value="BackEnd gets the string and starts to convert it to int" style="rounded=0;whiteSpace=wrap;html=1;" vertex="1" parent="WIyWlLk6GJQsqaUBKTNV-1">
          <mxGeometry x="250" y="30" width="120" height="60" as="geometry" />
        </mxCell>
        <mxCell id="nHf2IIVKBqBw7tvdfu93-4" value="" style="endArrow=classic;html=1;rounded=0;" edge="1" parent="WIyWlLk6GJQsqaUBKTNV-1">
          <mxGeometry width="50" height="50" relative="1" as="geometry">
            <mxPoint x="370" y="60" as="sourcePoint" />
            <mxPoint x="440" y="60" as="targetPoint" />
          </mxGeometry>
        </mxCell>
        <mxCell id="nHf2IIVKBqBw7tvdfu93-8" style="edgeStyle=orthogonalEdgeStyle;rounded=0;orthogonalLoop=1;jettySize=auto;html=1;exitX=0.5;exitY=0;exitDx=0;exitDy=0;entryX=0.5;entryY=0;entryDx=0;entryDy=0;" edge="1" parent="WIyWlLk6GJQsqaUBKTNV-1" source="nHf2IIVKBqBw7tvdfu93-5" target="nHf2IIVKBqBw7tvdfu93-0">
          <mxGeometry relative="1" as="geometry" />
        </mxCell>
        <mxCell id="nHf2IIVKBqBw7tvdfu93-9" style="edgeStyle=orthogonalEdgeStyle;rounded=0;orthogonalLoop=1;jettySize=auto;html=1;exitX=1;exitY=0.5;exitDx=0;exitDy=0;" edge="1" parent="WIyWlLk6GJQsqaUBKTNV-1" source="nHf2IIVKBqBw7tvdfu93-5">
          <mxGeometry relative="1" as="geometry">
            <mxPoint x="590" y="60" as="targetPoint" />
          </mxGeometry>
        </mxCell>
        <mxCell id="nHf2IIVKBqBw7tvdfu93-5" value="If Its&amp;nbsp; The Player&#39;s Turn" style="rhombus;whiteSpace=wrap;html=1;" vertex="1" parent="WIyWlLk6GJQsqaUBKTNV-1">
          <mxGeometry x="440" y="10" width="100" height="100" as="geometry" />
        </mxCell>
        <mxCell id="nHf2IIVKBqBw7tvdfu93-13" style="edgeStyle=orthogonalEdgeStyle;rounded=0;orthogonalLoop=1;jettySize=auto;html=1;exitX=0.5;exitY=0;exitDx=0;exitDy=0;" edge="1" parent="WIyWlLk6GJQsqaUBKTNV-1" source="nHf2IIVKBqBw7tvdfu93-11">
          <mxGeometry relative="1" as="geometry">
            <mxPoint x="490" y="-10" as="targetPoint" />
            <Array as="points">
              <mxPoint x="600" y="-35" />
              <mxPoint x="600" y="-10" />
            </Array>
          </mxGeometry>
        </mxCell>
        <mxCell id="nHf2IIVKBqBw7tvdfu93-14" style="edgeStyle=orthogonalEdgeStyle;rounded=0;orthogonalLoop=1;jettySize=auto;html=1;" edge="1" parent="WIyWlLk6GJQsqaUBKTNV-1" source="nHf2IIVKBqBw7tvdfu93-11">
          <mxGeometry relative="1" as="geometry">
            <mxPoint x="750" y="60" as="targetPoint" />
          </mxGeometry>
        </mxCell>
        <mxCell id="nHf2IIVKBqBw7tvdfu93-11" value="&lt;br&gt;&lt;span style=&quot;color: rgb(0, 0, 0); font-family: Helvetica; font-size: 12px; font-style: normal; font-variant-ligatures: normal; font-variant-caps: normal; font-weight: 400; letter-spacing: normal; orphans: 2; text-align: center; text-indent: 0px; text-transform: none; widows: 2; word-spacing: 0px; -webkit-text-stroke-width: 0px; background-color: rgb(251, 251, 251); text-decoration-thickness: initial; text-decoration-style: initial; text-decoration-color: initial; float: none; display: inline !important;&quot;&gt;if the dest and source square exsits on the board&lt;/span&gt;&lt;br&gt;" style="rhombus;whiteSpace=wrap;html=1;" vertex="1" parent="WIyWlLk6GJQsqaUBKTNV-1">
          <mxGeometry x="590" y="-35" width="100" height="190" as="geometry" />
        </mxCell>
        <mxCell id="nHf2IIVKBqBw7tvdfu93-17" style="edgeStyle=orthogonalEdgeStyle;rounded=0;orthogonalLoop=1;jettySize=auto;html=1;" edge="1" parent="WIyWlLk6GJQsqaUBKTNV-1" source="nHf2IIVKBqBw7tvdfu93-15">
          <mxGeometry relative="1" as="geometry">
            <mxPoint x="490" y="-10" as="targetPoint" />
            <Array as="points">
              <mxPoint x="799" y="-50" />
              <mxPoint x="490" y="-50" />
            </Array>
          </mxGeometry>
        </mxCell>
        <mxCell id="nHf2IIVKBqBw7tvdfu93-18" style="edgeStyle=orthogonalEdgeStyle;rounded=0;orthogonalLoop=1;jettySize=auto;html=1;" edge="1" parent="WIyWlLk6GJQsqaUBKTNV-1" source="nHf2IIVKBqBw7tvdfu93-15">
          <mxGeometry relative="1" as="geometry">
            <mxPoint x="798.5" y="180" as="targetPoint" />
          </mxGeometry>
        </mxCell>
        <mxCell id="nHf2IIVKBqBw7tvdfu93-15" value="can Move?&lt;br&gt;a function that is different for&amp;nbsp; each piece" style="rhombus;whiteSpace=wrap;html=1;" vertex="1" parent="WIyWlLk6GJQsqaUBKTNV-1">
          <mxGeometry x="750" y="-5" width="97" height="130" as="geometry" />
        </mxCell>
        <mxCell id="nHf2IIVKBqBw7tvdfu93-21" style="edgeStyle=orthogonalEdgeStyle;rounded=0;orthogonalLoop=1;jettySize=auto;html=1;" edge="1" parent="WIyWlLk6GJQsqaUBKTNV-1" source="nHf2IIVKBqBw7tvdfu93-19">
          <mxGeometry relative="1" as="geometry">
            <mxPoint x="680" y="240" as="targetPoint" />
          </mxGeometry>
        </mxCell>
        <mxCell id="nHf2IIVKBqBw7tvdfu93-26" style="edgeStyle=orthogonalEdgeStyle;rounded=0;orthogonalLoop=1;jettySize=auto;html=1;exitX=1;exitY=0.5;exitDx=0;exitDy=0;" edge="1" parent="WIyWlLk6GJQsqaUBKTNV-1" source="nHf2IIVKBqBw7tvdfu93-19">
          <mxGeometry relative="1" as="geometry">
            <mxPoint x="790" y="-50" as="targetPoint" />
            <Array as="points">
              <mxPoint x="970" y="240" />
              <mxPoint x="970" y="-50" />
            </Array>
          </mxGeometry>
        </mxCell>
        <mxCell id="nHf2IIVKBqBw7tvdfu93-19" value="if the move didnt led to a check" style="rhombus;whiteSpace=wrap;html=1;" vertex="1" parent="WIyWlLk6GJQsqaUBKTNV-1">
          <mxGeometry x="744" y="180" width="109" height="120" as="geometry" />
        </mxCell>
        <mxCell id="nHf2IIVKBqBw7tvdfu93-28" style="edgeStyle=orthogonalEdgeStyle;rounded=0;orthogonalLoop=1;jettySize=auto;html=1;" edge="1" parent="WIyWlLk6GJQsqaUBKTNV-1" source="nHf2IIVKBqBw7tvdfu93-27">
          <mxGeometry relative="1" as="geometry">
            <mxPoint x="480" y="240" as="targetPoint" />
          </mxGeometry>
        </mxCell>
        <mxCell id="nHf2IIVKBqBw7tvdfu93-27" value="updates the board" style="rounded=0;whiteSpace=wrap;html=1;" vertex="1" parent="WIyWlLk6GJQsqaUBKTNV-1">
          <mxGeometry x="560" y="210" width="120" height="60" as="geometry" />
        </mxCell>
        <mxCell id="nHf2IIVKBqBw7tvdfu93-31" style="edgeStyle=orthogonalEdgeStyle;rounded=0;orthogonalLoop=1;jettySize=auto;html=1;" edge="1" parent="WIyWlLk6GJQsqaUBKTNV-1" source="nHf2IIVKBqBw7tvdfu93-29">
          <mxGeometry relative="1" as="geometry">
            <mxPoint x="230" y="240" as="targetPoint" />
          </mxGeometry>
        </mxCell>
        <mxCell id="nHf2IIVKBqBw7tvdfu93-35" style="edgeStyle=orthogonalEdgeStyle;rounded=0;orthogonalLoop=1;jettySize=auto;html=1;" edge="1" parent="WIyWlLk6GJQsqaUBKTNV-1" source="nHf2IIVKBqBw7tvdfu93-29" target="nHf2IIVKBqBw7tvdfu93-34">
          <mxGeometry relative="1" as="geometry" />
        </mxCell>
        <mxCell id="nHf2IIVKBqBw7tvdfu93-29" value="send the code that the move is fine and sends to the frontEnd" style="rounded=0;whiteSpace=wrap;html=1;" vertex="1" parent="WIyWlLk6GJQsqaUBKTNV-1">
          <mxGeometry x="354" y="210" width="120" height="60" as="geometry" />
        </mxCell>
        <mxCell id="nHf2IIVKBqBw7tvdfu93-32" value="frontEnd updates the board" style="rounded=0;whiteSpace=wrap;html=1;" vertex="1" parent="WIyWlLk6GJQsqaUBKTNV-1">
          <mxGeometry x="110" y="220" width="120" height="60" as="geometry" />
        </mxCell>
        <mxCell id="nHf2IIVKBqBw7tvdfu93-34" value="Note :&amp;nbsp;&lt;br&gt;if the move was invalid , we will send the codes:&lt;br&gt;&lt;div&gt;FAIL_square_does_not_contain_friend_piece, FAIL_dest_contains_friend_piece,&lt;/div&gt;&lt;div&gt;	FAIL_move_leads_to_check, FAIL_invalid_square, FAIL_illegal_move, FAIL_dest_equals_src,&lt;/div&gt;&lt;div&gt;in&amp;nbsp;accordance to each invalid move , else we are going to send ACK or ACK_check&lt;/div&gt;" style="text;html=1;align=center;verticalAlign=middle;resizable=0;points=[];autosize=1;strokeColor=none;fillColor=none;" vertex="1" parent="WIyWlLk6GJQsqaUBKTNV-1">
          <mxGeometry y="300" width="520" height="90" as="geometry" />
        </mxCell>
      </root>
    </mxGraphModel>
  </diagram>
</mxfile>
